<svg id="Layer_1" data-name="Layer 1" xmlns="http://www.w3.org/2000/svg" viewBox="0 0 1130.73 388.62"><defs><style>.cls-1{fill:#010101;}</style></defs><title>Artboard 3</title><path class="cls-1" d="M1094.73,3a33,33,0,0,1,32.6,38.15l-50,316.62a32.85,32.85,0,0,1-32.6,27.85H36a33,33,0,0,1-32.6-38.15l50-316.62A32.85,32.85,0,0,1,86,3H1094.73m0-3H86A36,36,0,0,0,50.45,30.38L.45,347A36,36,0,0,0,36,388.62H1044.72a36,36,0,0,0,35.56-30.38l50-316.62A36,36,0,0,0,1094.73,0Z"/><path class="cls-1" d="M242.84,194.95l63.88,112.67H255.36L214,229.94l-63.88,77.68H95.19l96.94-115.87L129.86,80.68h50.07l42,76.71,61.31-76.71h54.89Z"/><path class="cls-1" d="M386.32,236.36H315.06L320.2,203h71.58Z"/><path class="cls-1" d="M578.59,116.63H501.23l-30.17,191H424.84l29.85-191h-77l5.78-36H584Z"/><path class="cls-1" d="M711.15,80.68c11.56,0,23.11,0,34.35,1.28,28.57,3.21,39.8,17,44.94,28.57a65.57,65.57,0,0,1,5.46,25.36c0,18.94-7.7,41.09-24.39,52.64-5.14,3.21-8.35,4.49-19.26,7.7,5.46,1.28,10.27,2.57,15.09,6.1,5.78,3.85,10.27,10.91,10.27,26.32,0,12.84-3.85,27.92-6.1,40.12a109.56,109.56,0,0,0-1.93,17.65c0,11.56,4.17,17.33,7.06,21.19H728.81c-3.21-7.38-4.81-11.23-4.81-18.94s1.6-14.76,3.21-22.15c2.57-13.8,4.49-28.57,4.49-33.7,0-3.53,0-10-7.06-15.09-7.38-5.14-17.33-4.81-19.58-4.81H617.75l-15.09,94.69h-44.3l36-226.94ZM623.2,177.94h78.32c15.41,0,34-.32,44.3-14.44a33.5,33.5,0,0,0,6.1-19.26c0-13.8-8-19.9-12.2-22.47-8.35-5.46-17.33-5.78-26.64-6.1H633.15Z"/><path class="cls-1" d="M1025.54,307.62h-45.9L970,257.86H861.2l-30.81,49.75H779.67L929.89,80.36h44Zm-143.8-82.17h81.53l-20.22-96.94Z"/></svg>